*
G04 Gerber written by LinkCAD 5.6.1 Build 4481*
G04 Layer: Align_marks-neg.gbr*
%FSLAX36Y36*%
%MOMM*%
%ADD10C,1.0000*%
G36*
G54D10*
X-4170003Y-1440000D02*
G01X-4168003Y-1445000D01*
X-4172003D01*
X-4170003Y-1440000D01*
G37*
G36*
X4169998D02*
X4171998Y-1445000D01*
X4167998D01*
X4169998Y-1440000D01*
G37*
G36*
X-4175003Y-1438000D02*
X-4170003Y-1440000D01*
X-4175003Y-1442000D01*
Y-1438000D01*
G37*
G36*
X-4170003Y-1440000D02*
X-4165003Y-1438000D01*
Y-1442000D01*
X-4170003Y-1440000D01*
G37*
G36*
X4164998Y-1438000D02*
X4169998Y-1440000D01*
X4164998Y-1442000D01*
Y-1438000D01*
G37*
G36*
X4169998Y-1440000D02*
X4174998Y-1438000D01*
Y-1442000D01*
X4169998Y-1440000D01*
G37*
G36*
X-4172003Y-1435000D02*
X-4168003D01*
X-4170003Y-1440000D01*
X-4172003Y-1435000D01*
G37*
G36*
X4167998D02*
X4171998D01*
X4169998Y-1440000D01*
X4167998Y-1435000D01*
G37*
G36*
X-3897006Y-75006D02*
X-3895006Y-80006D01*
X-3899006D01*
X-3897006Y-75006D01*
G37*
G36*
X-3751007D02*
X-3749007Y-80006D01*
X-3753007D01*
X-3751007Y-75006D01*
G37*
G36*
X-2215006D02*
X-2213006Y-80006D01*
X-2217006D01*
X-2215006Y-75006D01*
G37*
G36*
X-2069007D02*
X-2067007Y-80006D01*
X-2071007D01*
X-2069007Y-75006D01*
G37*
G36*
X-373004D02*
X-371004Y-80006D01*
X-375004D01*
X-373004Y-75006D01*
G37*
G36*
X-227005D02*
X-225005Y-80006D01*
X-229005D01*
X-227005Y-75006D01*
G37*
G36*
X-73002D02*
X-71002Y-80006D01*
X-75002D01*
X-73002Y-75006D01*
G37*
G36*
X72997D02*
X74997Y-80006D01*
X70997D01*
X72997Y-75006D01*
G37*
G36*
X227000D02*
X229000Y-80006D01*
X225000D01*
X227000Y-75006D01*
G37*
G36*
X372999D02*
X374999Y-80006D01*
X370999D01*
X372999Y-75006D01*
G37*
G36*
X2069002D02*
X2071002Y-80006D01*
X2067002D01*
X2069002Y-75006D01*
G37*
G36*
X2215001D02*
X2217001Y-80006D01*
X2213001D01*
X2215001Y-75006D01*
G37*
G36*
X3751002D02*
X3753002Y-80006D01*
X3749002D01*
X3751002Y-75006D01*
G37*
G36*
X3897001D02*
X3899001Y-80006D01*
X3895001D01*
X3897001Y-75006D01*
G37*
G36*
X-3902006Y-73006D02*
X-3897006Y-75006D01*
X-3902006Y-77006D01*
Y-73006D01*
G37*
G36*
X-3897006Y-75006D02*
X-3892006Y-73006D01*
Y-77006D01*
X-3897006Y-75006D01*
G37*
G36*
X-3756007Y-73006D02*
X-3751007Y-75006D01*
X-3756007Y-77006D01*
Y-73006D01*
G37*
G36*
X-3751007Y-75006D02*
X-3746007Y-73006D01*
Y-77006D01*
X-3751007Y-75006D01*
G37*
G36*
X-2220006Y-73006D02*
X-2215006Y-75006D01*
X-2220006Y-77006D01*
Y-73006D01*
G37*
G36*
X-2215006Y-75006D02*
X-2210006Y-73006D01*
Y-77006D01*
X-2215006Y-75006D01*
G37*
G36*
X-2074007Y-73006D02*
X-2069007Y-75006D01*
X-2074007Y-77006D01*
Y-73006D01*
G37*
G36*
X-2069007Y-75006D02*
X-2064007Y-73006D01*
Y-77006D01*
X-2069007Y-75006D01*
G37*
G36*
X-378004Y-73006D02*
X-373004Y-75006D01*
X-378004Y-77006D01*
Y-73006D01*
G37*
G36*
X-373004Y-75006D02*
X-368004Y-73006D01*
Y-77006D01*
X-373004Y-75006D01*
G37*
G36*
X-232005Y-73006D02*
X-227005Y-75006D01*
X-232005Y-77006D01*
Y-73006D01*
G37*
G36*
X-227005Y-75006D02*
X-222005Y-73006D01*
Y-77006D01*
X-227005Y-75006D01*
G37*
G36*
X-78002Y-73006D02*
X-73002Y-75006D01*
X-78002Y-77006D01*
Y-73006D01*
G37*
G36*
X-73002Y-75006D02*
X-68002Y-73006D01*
Y-77006D01*
X-73002Y-75006D01*
G37*
G36*
X67997Y-73006D02*
X72997Y-75006D01*
X67997Y-77006D01*
Y-73006D01*
G37*
G36*
X72997Y-75006D02*
X77997Y-73006D01*
Y-77006D01*
X72997Y-75006D01*
G37*
G36*
X222000Y-73006D02*
X227000Y-75006D01*
X222000Y-77006D01*
Y-73006D01*
G37*
G36*
X227000Y-75006D02*
X232000Y-73006D01*
Y-77006D01*
X227000Y-75006D01*
G37*
G36*
X367999Y-73006D02*
X372999Y-75006D01*
X367999Y-77006D01*
Y-73006D01*
G37*
G36*
X372999Y-75006D02*
X377999Y-73006D01*
Y-77006D01*
X372999Y-75006D01*
G37*
G36*
X2064002Y-73006D02*
X2069002Y-75006D01*
X2064002Y-77006D01*
Y-73006D01*
G37*
G36*
X2069002Y-75006D02*
X2074002Y-73006D01*
Y-77006D01*
X2069002Y-75006D01*
G37*
G36*
X2210001Y-73006D02*
X2215001Y-75006D01*
X2210001Y-77006D01*
Y-73006D01*
G37*
G36*
X2215001Y-75006D02*
X2220001Y-73006D01*
Y-77006D01*
X2215001Y-75006D01*
G37*
G36*
X3746002Y-73006D02*
X3751002Y-75006D01*
X3746002Y-77006D01*
Y-73006D01*
G37*
G36*
X3751002Y-75006D02*
X3756002Y-73006D01*
Y-77006D01*
X3751002Y-75006D01*
G37*
G36*
X3892001Y-73006D02*
X3897001Y-75006D01*
X3892001Y-77006D01*
Y-73006D01*
G37*
G36*
X3897001Y-75006D02*
X3902001Y-73006D01*
Y-77006D01*
X3897001Y-75006D01*
G37*
G36*
X-3899006Y-70006D02*
X-3895006D01*
X-3897006Y-75006D01*
X-3899006Y-70006D01*
G37*
G36*
X-3753007D02*
X-3749007D01*
X-3751007Y-75006D01*
X-3753007Y-70006D01*
G37*
G36*
X-2217006D02*
X-2213006D01*
X-2215006Y-75006D01*
X-2217006Y-70006D01*
G37*
G36*
X-2071007D02*
X-2067007D01*
X-2069007Y-75006D01*
X-2071007Y-70006D01*
G37*
G36*
X-375004D02*
X-371004D01*
X-373004Y-75006D01*
X-375004Y-70006D01*
G37*
G36*
X-229005D02*
X-225005D01*
X-227005Y-75006D01*
X-229005Y-70006D01*
G37*
G36*
X-75002D02*
X-71002D01*
X-73002Y-75006D01*
X-75002Y-70006D01*
G37*
G36*
X70997D02*
X74997D01*
X72997Y-75006D01*
X70997Y-70006D01*
G37*
G36*
X225000D02*
X229000D01*
X227000Y-75006D01*
X225000Y-70006D01*
G37*
G36*
X370999D02*
X374999D01*
X372999Y-75006D01*
X370999Y-70006D01*
G37*
G36*
X2067002D02*
X2071002D01*
X2069002Y-75006D01*
X2067002Y-70006D01*
G37*
G36*
X2213001D02*
X2217001D01*
X2215001Y-75006D01*
X2213001Y-70006D01*
G37*
G36*
X3749002D02*
X3753002D01*
X3751002Y-75006D01*
X3749002Y-70006D01*
G37*
G36*
X3895001D02*
X3899001D01*
X3897001Y-75006D01*
X3895001Y-70006D01*
G37*
G36*
X-3897006Y75006D02*
X-3895006Y70006D01*
X-3899006D01*
X-3897006Y75006D01*
G37*
G36*
X-3751007D02*
X-3749007Y70006D01*
X-3753007D01*
X-3751007Y75006D01*
G37*
G36*
X-2215006D02*
X-2213006Y70006D01*
X-2217006D01*
X-2215006Y75006D01*
G37*
G36*
X-2069007D02*
X-2067007Y70006D01*
X-2071007D01*
X-2069007Y75006D01*
G37*
G36*
X-373004D02*
X-371004Y70006D01*
X-375004D01*
X-373004Y75006D01*
G37*
G36*
X-227005D02*
X-225005Y70006D01*
X-229005D01*
X-227005Y75006D01*
G37*
G36*
X-73002D02*
X-71002Y70006D01*
X-75002D01*
X-73002Y75006D01*
G37*
G36*
X72997D02*
X74997Y70006D01*
X70997D01*
X72997Y75006D01*
G37*
G36*
X227000D02*
X229000Y70006D01*
X225000D01*
X227000Y75006D01*
G37*
G36*
X372999D02*
X374999Y70006D01*
X370999D01*
X372999Y75006D01*
G37*
G36*
X2069002D02*
X2071002Y70006D01*
X2067002D01*
X2069002Y75006D01*
G37*
G36*
X2215001D02*
X2217001Y70006D01*
X2213001D01*
X2215001Y75006D01*
G37*
G36*
X3751002D02*
X3753002Y70006D01*
X3749002D01*
X3751002Y75006D01*
G37*
G36*
X3897001D02*
X3899001Y70006D01*
X3895001D01*
X3897001Y75006D01*
G37*
G36*
X-3902006Y77006D02*
X-3897006Y75006D01*
X-3902006Y73006D01*
Y77006D01*
G37*
G36*
X-3897006Y75006D02*
X-3892006Y77006D01*
Y73006D01*
X-3897006Y75006D01*
G37*
G36*
X-3756007Y77006D02*
X-3751007Y75006D01*
X-3756007Y73006D01*
Y77006D01*
G37*
G36*
X-3751007Y75006D02*
X-3746007Y77006D01*
Y73006D01*
X-3751007Y75006D01*
G37*
G36*
X-2220006Y77006D02*
X-2215006Y75006D01*
X-2220006Y73006D01*
Y77006D01*
G37*
G36*
X-2215006Y75006D02*
X-2210006Y77006D01*
Y73006D01*
X-2215006Y75006D01*
G37*
G36*
X-2074007Y77006D02*
X-2069007Y75006D01*
X-2074007Y73006D01*
Y77006D01*
G37*
G36*
X-2069007Y75006D02*
X-2064007Y77006D01*
Y73006D01*
X-2069007Y75006D01*
G37*
G36*
X-378004Y77006D02*
X-373004Y75006D01*
X-378004Y73006D01*
Y77006D01*
G37*
G36*
X-373004Y75006D02*
X-368004Y77006D01*
Y73006D01*
X-373004Y75006D01*
G37*
G36*
X-232005Y77006D02*
X-227005Y75006D01*
X-232005Y73006D01*
Y77006D01*
G37*
G36*
X-227005Y75006D02*
X-222005Y77006D01*
Y73006D01*
X-227005Y75006D01*
G37*
G36*
X-78002Y77006D02*
X-73002Y75006D01*
X-78002Y73006D01*
Y77006D01*
G37*
G36*
X-73002Y75006D02*
X-68002Y77006D01*
Y73006D01*
X-73002Y75006D01*
G37*
G36*
X67997Y77006D02*
X72997Y75006D01*
X67997Y73006D01*
Y77006D01*
G37*
G36*
X72997Y75006D02*
X77997Y77006D01*
Y73006D01*
X72997Y75006D01*
G37*
G36*
X222000Y77006D02*
X227000Y75006D01*
X222000Y73006D01*
Y77006D01*
G37*
G36*
X227000Y75006D02*
X232000Y77006D01*
Y73006D01*
X227000Y75006D01*
G37*
G36*
X367999Y77006D02*
X372999Y75006D01*
X367999Y73006D01*
Y77006D01*
G37*
G36*
X372999Y75006D02*
X377999Y77006D01*
Y73006D01*
X372999Y75006D01*
G37*
G36*
X2064002Y77006D02*
X2069002Y75006D01*
X2064002Y73006D01*
Y77006D01*
G37*
G36*
X2069002Y75006D02*
X2074002Y77006D01*
Y73006D01*
X2069002Y75006D01*
G37*
G36*
X2210001Y77006D02*
X2215001Y75006D01*
X2210001Y73006D01*
Y77006D01*
G37*
G36*
X2215001Y75006D02*
X2220001Y77006D01*
Y73006D01*
X2215001Y75006D01*
G37*
G36*
X3746002Y77006D02*
X3751002Y75006D01*
X3746002Y73006D01*
Y77006D01*
G37*
G36*
X3751002Y75006D02*
X3756002Y77006D01*
Y73006D01*
X3751002Y75006D01*
G37*
G36*
X3892001Y77006D02*
X3897001Y75006D01*
X3892001Y73006D01*
Y77006D01*
G37*
G36*
X3897001Y75006D02*
X3902001Y77006D01*
Y73006D01*
X3897001Y75006D01*
G37*
G36*
X-3899006Y80006D02*
X-3895006D01*
X-3897006Y75006D01*
X-3899006Y80006D01*
G37*
G36*
X-3753007D02*
X-3749007D01*
X-3751007Y75006D01*
X-3753007Y80006D01*
G37*
G36*
X-2217006D02*
X-2213006D01*
X-2215006Y75006D01*
X-2217006Y80006D01*
G37*
G36*
X-2071007D02*
X-2067007D01*
X-2069007Y75006D01*
X-2071007Y80006D01*
G37*
G36*
X-375004D02*
X-371004D01*
X-373004Y75006D01*
X-375004Y80006D01*
G37*
G36*
X-229005D02*
X-225005D01*
X-227005Y75006D01*
X-229005Y80006D01*
G37*
G36*
X-75002D02*
X-71002D01*
X-73002Y75006D01*
X-75002Y80006D01*
G37*
G36*
X70997D02*
X74997D01*
X72997Y75006D01*
X70997Y80006D01*
G37*
G36*
X225000D02*
X229000D01*
X227000Y75006D01*
X225000Y80006D01*
G37*
G36*
X370999D02*
X374999D01*
X372999Y75006D01*
X370999Y80006D01*
G37*
G36*
X2067002D02*
X2071002D01*
X2069002Y75006D01*
X2067002Y80006D01*
G37*
G36*
X2213001D02*
X2217001D01*
X2215001Y75006D01*
X2213001Y80006D01*
G37*
G36*
X3749002D02*
X3753002D01*
X3751002Y75006D01*
X3749002Y80006D01*
G37*
G36*
X3895001D02*
X3899001D01*
X3897001Y75006D01*
X3895001Y80006D01*
G37*
G36*
X-4170003Y1440000D02*
X-4168003Y1435000D01*
X-4172003D01*
X-4170003Y1440000D01*
G37*
G36*
X4169999D02*
X4171999Y1435000D01*
X4167999D01*
X4169999Y1440000D01*
G37*
G36*
X-4175003Y1442000D02*
X-4170003Y1440000D01*
X-4175003Y1438000D01*
Y1442000D01*
G37*
G36*
X-4170003Y1440000D02*
X-4165003Y1442000D01*
Y1438000D01*
X-4170003Y1440000D01*
G37*
G36*
X4164999Y1442000D02*
X4169999Y1440000D01*
X4164999Y1438000D01*
Y1442000D01*
G37*
G36*
X4169999Y1440000D02*
X4174999Y1442000D01*
Y1438000D01*
X4169999Y1440000D01*
G37*
G36*
X-4172003Y1445000D02*
X-4168003D01*
X-4170003Y1440000D01*
X-4172003Y1445000D01*
G37*
G36*
X4167999D02*
X4171999D01*
X4169999Y1440000D01*
X4167999Y1445000D01*
G37*
M02*
