*
G04 Gerber written by LinkCAD 5.6.1 Build 4481*
G04 Layer: ID-neg.gbr*
%FSLAX36Y36*%
%MOMM*%
%ADD10C,1.0000*%
G36*
G54D10*
X-153001Y-956000D02*
G01X-28001D01*
Y-981000D01*
X-128001D01*
Y-1066000D01*
X-28001D01*
Y-1091000D01*
X-128001D01*
Y-1206000D01*
X-153001D01*
Y-956000D01*
G37*
G36*
X26000D02*
X151000D01*
Y-981000D01*
X51000D01*
Y-1181000D01*
X126000D01*
Y-1131000D01*
X101000D01*
Y-1106000D01*
X151000D01*
Y-1206000D01*
X26000D01*
Y-956000D01*
G37*
G36*
X-3978002Y1062998D02*
X-3853002D01*
Y912998D01*
X-3953002D01*
Y837998D01*
X-3853002D01*
Y812998D01*
X-3978002D01*
Y937998D01*
X-3878002D01*
Y1037998D01*
X-3978002D01*
Y1062998D01*
G37*
G36*
X-3753002D02*
X-3653002D01*
Y812998D01*
X-3753002D01*
Y837998D01*
X-3678002D01*
Y1037998D01*
X-3753002D01*
Y1062998D01*
Y812998D02*
X-3778002D01*
Y1062998D01*
X-3753002D01*
Y812998D01*
G37*
G36*
X-3552981Y1062998D02*
X-3427981D01*
Y1037998D01*
X-3527981D01*
Y952998D01*
X-3427981D01*
Y927998D01*
X-3527981D01*
Y812998D01*
X-3552981D01*
Y1062998D01*
G37*
G36*
X-2202107D02*
X-2177107D01*
Y812998D01*
X-2202107D01*
Y1062998D01*
G37*
G36*
X-1979148D02*
Y812998D01*
X-2104148D01*
Y865002D01*
X-2079148Y864998D01*
Y837998D01*
X-2004148D01*
Y1062998D01*
X-1979148D01*
G37*
G36*
X3670006D02*
X3795006D01*
Y912998D01*
X3695006D01*
Y837998D01*
X3795006D01*
Y812998D01*
X3670006D01*
Y937998D01*
X3770006D01*
Y1037998D01*
X3670006D01*
Y1062998D01*
G37*
G36*
X3895006D02*
X3995006D01*
Y812998D01*
X3895006D01*
Y837998D01*
X3970006D01*
Y1037998D01*
X3895006D01*
Y1062998D01*
Y812998D02*
X3870006D01*
Y1062998D01*
X3895006D01*
Y812998D01*
G37*
G36*
X4095026Y1062998D02*
X4220026D01*
Y1037998D01*
X4120026D01*
Y952998D01*
X4220026D01*
Y927998D01*
X4120026D01*
Y812998D01*
X4095026D01*
Y1062998D01*
G37*
G36*
X2077897Y1082997D02*
X2102897D01*
Y832997D01*
X2077897D01*
Y1082997D01*
G37*
G36*
X2300856D02*
Y832997D01*
X2175856D01*
Y885001D01*
X2200856Y884998D01*
Y857997D01*
X2275856D01*
Y1082997D01*
X2300856D01*
G37*
G36*
X-57002Y1217000D02*
X-32002D01*
Y1117000D01*
X-57002D01*
Y1217000D01*
G37*
G36*
Y1342000D02*
X-32002D01*
Y1242000D01*
X-57002D01*
Y1342000D01*
G37*
G36*
X-182002Y1367000D02*
X-57002D01*
Y1342000D01*
X-157002D01*
Y1242000D01*
X-57002D01*
Y1217000D01*
X-157002D01*
Y1117000D01*
X-57002D01*
Y1092000D01*
X-182002D01*
Y1367000D01*
G37*
G36*
X67998D02*
X217998D01*
Y1092000D01*
X67998D01*
Y1117000D01*
X192998D01*
Y1217000D01*
X67998D01*
Y1242000D01*
X192998D01*
Y1342000D01*
X67998D01*
Y1367000D01*
G37*
M02*
